<svg xmlns="http://www.w3.org/2000/svg" width="1200" height="675" viewBox="0 0 1200 675" role="img" aria-label="OpenHGNN v0.9 release overview">
  <defs>
    <linearGradient id="bg" x1="0" y1="0" x2="1" y2="1">
      <stop offset="0%" stop-color="#0f172a"/>
      <stop offset="55%" stop-color="#12343b"/>
      <stop offset="100%" stop-color="#1f2937"/>
    </linearGradient>
    <linearGradient id="accent" x1="0" y1="0" x2="1" y2="0">
      <stop offset="0%" stop-color="#22c55e"/>
      <stop offset="100%" stop-color="#38bdf8"/>
    </linearGradient>
    <filter id="shadow" x="-20%" y="-20%" width="140%" height="140%">
      <feDropShadow dx="0" dy="14" stdDeviation="18" flood-color="#020617" flood-opacity="0.35"/>
    </filter>
  </defs>
  <rect width="1200" height="675" fill="url(#bg)"/>
  <path d="M130 505 C265 395 330 565 460 455 S690 310 825 405 1025 475 1110 330" fill="none" stroke="#38bdf8" stroke-width="3" opacity="0.32"/>
  <path d="M130 530 C260 430 370 520 485 405 S720 270 850 360 1040 425 1110 285" fill="none" stroke="#22c55e" stroke-width="3" opacity="0.42"/>

  <g transform="translate(72 72)">
    <rect x="0" y="0" width="1056" height="531" rx="24" fill="#f8fafc" opacity="0.98" filter="url(#shadow)"/>
    <rect x="0" y="0" width="1056" height="14" rx="7" fill="url(#accent)"/>
    <text x="56" y="94" font-family="Inter, Arial, sans-serif" font-size="42" font-weight="800" fill="#0f172a">OpenHGNN v0.9</text>
    <text x="56" y="135" font-family="Inter, Arial, sans-serif" font-size="22" fill="#475569">Documentation-first, DGL-first, reproducible heterogeneous graph learning</text>

    <g transform="translate(56 190)">
      <rect x="0" y="0" width="210" height="135" rx="18" fill="#ecfeff" stroke="#06b6d4"/>
      <text x="24" y="54" font-family="Inter, Arial, sans-serif" font-size="44" font-weight="800" fill="#0891b2">83</text>
      <text x="24" y="92" font-family="Inter, Arial, sans-serif" font-size="20" font-weight="700" fill="#0f172a">Models</text>
      <text x="24" y="118" font-family="Inter, Arial, sans-serif" font-size="15" fill="#475569">registry validated</text>

      <rect x="245" y="0" width="210" height="135" rx="18" fill="#f0fdf4" stroke="#22c55e"/>
      <text x="269" y="54" font-family="Inter, Arial, sans-serif" font-size="44" font-weight="800" fill="#16a34a">17</text>
      <text x="269" y="92" font-family="Inter, Arial, sans-serif" font-size="20" font-weight="700" fill="#0f172a">Tasks</text>
      <text x="269" y="118" font-family="Inter, Arial, sans-serif" font-size="15" fill="#475569">node regression added</text>

      <rect x="490" y="0" width="210" height="135" rx="18" fill="#fff7ed" stroke="#f97316"/>
      <text x="514" y="54" font-family="Inter, Arial, sans-serif" font-size="44" font-weight="800" fill="#ea580c">10</text>
      <text x="514" y="92" font-family="Inter, Arial, sans-serif" font-size="20" font-weight="700" fill="#0f172a">New Papers</text>
      <text x="514" y="118" font-family="Inter, Arial, sans-serif" font-size="15" fill="#475569">11 registered names</text>

      <rect x="735" y="0" width="210" height="135" rx="18" fill="#eef2ff" stroke="#6366f1"/>
      <text x="759" y="54" font-family="Inter, Arial, sans-serif" font-size="44" font-weight="800" fill="#4f46e5">CI</text>
      <text x="759" y="92" font-family="Inter, Arial, sans-serif" font-size="20" font-weight="700" fill="#0f172a">Quality Gates</text>
      <text x="759" y="118" font-family="Inter, Arial, sans-serif" font-size="15" fill="#475569">docs, registry, hygiene</text>
    </g>

    <g transform="translate(56 378)">
      <rect x="0" y="0" width="945" height="92" rx="18" fill="#0f172a"/>
      <text x="28" y="38" font-family="Inter, Arial, sans-serif" font-size="20" font-weight="700" fill="#f8fafc">v0.9 release direction</text>
      <text x="28" y="68" font-family="Inter, Arial, sans-serif" font-size="18" fill="#cbd5e1">Make every merged model easier to discover, run, reproduce, review, and maintain.</text>
    </g>
  </g>
</svg>
